<?xml version="1.0" encoding="iso-8859-1"?>
<!-- Uploaded to: SVG Repo, www.svgrepo.com, Generator: SVG Repo Mixer Tools -->
<!DOCTYPE svg PUBLIC "-//W3C//DTD SVG 1.1//EN" "http://www.w3.org/Graphics/SVG/1.1/DTD/svg11.dtd">
<svg fill="#000000" height="800px" width="800px" version="1.1" id="Capa_1" xmlns="http://www.w3.org/2000/svg" xmlns:xlink="http://www.w3.org/1999/xlink" 
	 viewBox="0 0 297 297" xml:space="preserve">
<g>
	<path d="M148.5,98.877c-15.512,0-45.033,0.848-51.843,7.599c-4.494,4.454-6.677,11.829-6.677,22.548
		c0,18.396,6.662,38.602,17.821,54.05c11.568,16.015,26.023,24.834,40.7,24.834c14.678,0,29.133-8.819,40.701-24.834
		c11.158-15.448,17.821-35.653,17.821-54.05c0-10.719-2.184-18.094-6.677-22.548c-7.931-7.863-32.934-7.72-51.845-7.553V98.877z"/>
	<path d="M134.613,50.757h27.774c6.261,0,12.062-2.831,15.915-7.765c3.854-4.936,5.192-11.25,3.674-17.325l-2.592-10.372
		C177.133,6.289,169.078,0,159.794,0h-22.588c-9.283,0-17.338,6.289-19.589,15.295l-2.593,10.373
		c-1.518,6.074-0.18,12.389,3.674,17.324C122.55,47.926,128.351,50.757,134.613,50.757z"/>
	<path d="M195.502,16.524h52.143c4.236,0,7.669-3.433,7.669-7.669c0-4.236-3.433-7.669-7.669-7.669h-57.826
		c1.984,3.139,3.506,6.628,4.446,10.39L195.502,16.524z"/>
	<path d="M49.356,33.048c4.236,0,7.669-3.433,7.669-7.669v-8.855h44.473l1.238-4.95c0.94-3.762,2.462-7.25,4.446-10.389H49.356
		c-4.236,0-7.669,3.433-7.669,7.669v16.524C41.687,29.615,45.12,33.048,49.356,33.048z"/>
	<path d="M191.854,50.405c-6.78,8.685-18.449,15.691-29.466,15.691h-27.774c-11.018,0-22.687-7.007-29.467-15.691
		c-38.599,5.366-68.483,37.484-70.02,77.56L34.633,140.8c-0.003,0.085-0.009,0.168-0.014,0.251
		c-0.474,6.632,1.761,12.964,6.292,17.83c4.53,4.865,10.687,7.545,17.335,7.545h25.781c-4.66-12.092-7.195-24.938-7.195-37.404
		c0-14.406,3.457-24.835,10.569-31.885c11.824-11.719,39.257-11.56,61.099-11.362c21.848-0.199,49.277-0.357,61.101,11.362
		c7.112,7.05,10.569,17.479,10.569,31.885c0,12.466-2.535,25.312-7.195,37.404h25.781c6.649,0,12.805-2.68,17.335-7.545
		c4.531-4.866,6.765-11.198,6.291-17.829c-0.005-0.085-0.011-0.169-0.014-0.253l-0.492-12.835
		C260.338,87.889,230.453,55.771,191.854,50.405z"/>
	<path d="M91.936,220.061H75.95c-18.898,0-34.273,18.385-34.273,40.983v25.626c0,5.705,4.625,10.33,10.33,10.33h55.136l31.178-31.41
		L91.936,220.061z"/>
	<path d="M221.051,220.061h-15.927L128.754,297h116.24c5.705,0,10.33-4.625,10.33-10.33v-25.626
		C255.324,238.446,239.949,220.061,221.051,220.061z"/>
</g>
</svg>